<svg xmlns="http://www.w3.org/2000/svg" xmlns:xlink="http://www.w3.org/1999/xlink" width="14.59" height="19.375" viewBox="0 0 14.59 19.375">
  <defs>
    <style>
      .cls-1 {
        fill: #fff;
        fill-rule: evenodd;
        filter: url(#filter);
      }
    </style>
    <filter id="filter" x="1343.41" y="21" width="14.59" height="19.375" filterUnits="userSpaceOnUse">
      <feFlood result="flood" flood-color="#505050"/>
      <feComposite result="composite" operator="in" in2="SourceGraphic"/>
      <feBlend result="blend" in2="SourceGraphic"/>
    </filter>
  </defs>
  <path id="_1-1.svg" data-name="1-1.svg" class="cls-1" d="M1358,40.384h-14.61V24.524h4.11V23.2a2.242,2.242,0,0,1,2.28-2.2h1.83a2.242,2.242,0,0,1,2.28,2.2v1.322H1358v15.86ZM1352.98,23.2a1.344,1.344,0,0,0-1.37-1.322h-1.83a1.35,1.35,0,0,0-1.37,1.322v1.322h4.57V23.2Zm4.11,2.2h-3.2v1.762h-0.91V25.405h-4.57v1.762h-0.91V25.405h-3.19V39.5h12.78v-14.1Z" transform="translate(-1343.41 -21)"/>
</svg>
